<svg xmlns="http://www.w3.org/2000/svg" viewBox="0 0 128 128" width="128" height="128">
  <defs>
    <linearGradient id="bg" x1="0" y1="0" x2="1" y2="1">
      <stop offset="0%" stop-color="#1e1b4b"/>
      <stop offset="100%" stop-color="#09090b"/>
    </linearGradient>
    <linearGradient id="body" x1="0" y1="0" x2="0" y2="1">
      <stop offset="0%" stop-color="#a5b4fc"/>
      <stop offset="100%" stop-color="#818cf8"/>
    </linearGradient>
  </defs>
  <rect width="128" height="128" rx="28" fill="url(#bg)"/>
  <g transform="translate(32,24) scale(1)">
    <path
      d="M12 18c0-6 4-10 10-10h20c6 0 10 4 10 10v22c0 9-7 16-16 16H24c-9 0-16-7-16-16V18z"
      fill="url(#body)"
      stroke="#c7d2fe"
      stroke-width="1.5"
    />
    <path
      d="M22 26h20"
      stroke="#c7d2fe"
      stroke-width="2"
      stroke-linecap="round"
      fill="none"
    />
    <circle cx="24" cy="34" r="3.5" fill="#1e1b4b"/>
    <circle cx="40" cy="34" r="3.5" fill="#1e1b4b"/>
    <path
      d="M26 42c3 3 9 3 12 0"
      stroke="#1e1b4b"
      stroke-width="2"
      stroke-linecap="round"
      fill="none"
    />
  </g>
</svg>
