<svg xmlns="http://www.w3.org/2000/svg" viewBox="0 0 128 128" width="128" height="128" role="img" aria-label="Parchi mascot logo">
  <defs>
    <radialGradient id="bg" cx="36%" cy="30%" r="85%">
      <stop offset="0%" stop-color="#2b0b55"/>
      <stop offset="62%" stop-color="#120226"/>
      <stop offset="100%" stop-color="#05020f"/>
    </radialGradient>
    <filter id="glow" x="-50%" y="-50%" width="200%" height="200%">
      <feGaussianBlur stdDeviation="3.8" result="blur"/>
      <feMerge>
        <feMergeNode in="blur"/>
        <feMergeNode in="SourceGraphic"/>
      </feMerge>
    </filter>
  </defs>

  <rect width="128" height="128" rx="26" fill="url(#bg)"/>

  <g filter="url(#glow)">
    <g transform="translate(10 8)">
      <g transform="rotate(-20 32 88)">
        <rect x="6" y="78" width="42" height="22" rx="7" fill="#12081f" stroke="#8f52ff" stroke-width="2"/>
        <rect x="11" y="82" width="32" height="14" rx="5" fill="#4b1ca1" stroke="#c88cff" stroke-width="1.6"/>
        <ellipse cx="26" cy="89" rx="7" ry="4.5" fill="#12081f" stroke="#8f52ff" stroke-width="1.4"/>
      </g>

      <circle cx="70" cy="48" r="22" fill="#12081f" stroke="#8f52ff" stroke-width="2.2"/>
      <circle cx="76" cy="80" r="21" fill="#12081f" stroke="#8f52ff" stroke-width="2.2"/>
      <circle cx="51" cy="81" r="8" fill="#12081f" stroke="#8f52ff" stroke-width="2"/>
      <circle cx="101" cy="84" r="7.5" fill="#12081f" stroke="#8f52ff" stroke-width="2"/>
      <ellipse cx="95" cy="98" rx="6.5" ry="4.2" fill="#12081f" stroke="#8f52ff" stroke-width="1.8"/>
      <ellipse cx="56" cy="100" rx="5.8" ry="3.8" fill="#12081f" stroke="#8f52ff" stroke-width="1.6" opacity="0.7"/>

      <ellipse cx="66" cy="35" rx="7" ry="4" fill="#cf8eff" opacity="0.8"/>
      <circle cx="60" cy="44" r="1.4" fill="#cf8eff" opacity="0.7"/>
      <circle cx="52" cy="50" r="1.2" fill="#cf8eff" opacity="0.5"/>

      <circle cx="61" cy="50" r="2.6" fill="#d79cff"/>
      <circle cx="80" cy="50" r="2.6" fill="#d79cff"/>
      <path d="M65 59c3.2 3.6 8.8 3.6 12 0" fill="none" stroke="#d79cff" stroke-width="2.1" stroke-linecap="round"/>
    </g>
  </g>
</svg>
